<svg width="216" height="27" viewBox="0 0 216 27" fill="none" xmlns="http://www.w3.org/2000/svg">
<path d="M51.9873 1.11572C51.9873 1.00146 52.0283 0.90332 52.1104 0.821289C52.1924 0.739258 52.2905 0.698242 52.4048 0.698242H55.9775C56.8535 0.698242 57.4995 0.950195 57.9155 1.4541C58.147 1.73242 58.2627 2.08838 58.2627 2.52197C58.2627 2.95264 58.0649 3.3291 57.6694 3.65137C58.2319 3.95312 58.5132 4.42188 58.5132 5.05762C58.5132 5.69336 58.2876 6.17676 57.8364 6.50781C57.3882 6.83594 56.8374 7 56.1841 7H52.4048C52.2905 7 52.1924 6.96045 52.1104 6.88135C52.0283 6.79932 51.9873 6.70117 51.9873 6.58691V1.11572ZM53.644 5.81348H56.1577C56.3833 5.81348 56.5562 5.74609 56.6763 5.61133C56.7964 5.47656 56.8564 5.29199 56.8564 5.05762C56.8564 4.82324 56.7964 4.63867 56.6763 4.50391C56.5562 4.36914 56.3833 4.30176 56.1577 4.30176H53.644V5.81348ZM53.644 3.146H55.9951C56.1797 3.146 56.3276 3.0918 56.439 2.9834C56.5503 2.87207 56.606 2.71826 56.606 2.52197C56.606 2.32275 56.5503 2.16748 56.439 2.05615C56.3276 1.94482 56.1797 1.88916 55.9951 1.88916H53.644V3.146Z" fill="black"/>
<path d="M61.8955 6.5957L62.9985 2.41211C63.2974 1.27246 64.27 0.701172 65.9165 0.698242H68.2852C68.3936 0.698242 68.4829 0.739258 68.5532 0.821289C68.6265 0.90332 68.6631 0.998535 68.6631 1.10693V6.5957C68.6631 6.70996 68.6221 6.80664 68.54 6.88574C68.458 6.96191 68.3599 7 68.2456 7H67.4194C67.2993 7 67.1997 6.96191 67.1206 6.88574C67.0444 6.80664 67.0063 6.70703 67.0063 6.58691V5.47949H63.8818L63.5874 6.58691C63.5581 6.70703 63.4922 6.80664 63.3896 6.88574C63.2871 6.96191 63.1787 7 63.0645 7H62.1987C62.0845 7 62.0024 6.96777 61.9526 6.90332C61.9028 6.83594 61.8779 6.77734 61.8779 6.72754C61.8809 6.67773 61.8867 6.63379 61.8955 6.5957ZM64.207 4.23584H67.0063V1.94189H65.7539C65.4727 1.94189 65.2266 2.02246 65.0156 2.18359C64.8076 2.3418 64.667 2.55566 64.5938 2.8252L64.207 4.23584Z" fill="black"/>
<path d="M72.3794 0.90918C72.3794 0.768555 72.4556 0.698242 72.6079 0.698242H73.4429C73.7739 0.698242 74.0288 0.837402 74.2075 1.11572L75.6313 3.30859L77.0508 1.11572C77.2324 0.837402 77.4873 0.698242 77.8154 0.698242H78.6548C78.8042 0.698242 78.8789 0.768555 78.8789 0.90918C78.8789 0.973633 78.8555 1.04248 78.8086 1.11572L76.4575 4.75V6.5957C76.4575 6.70996 76.4165 6.80664 76.3345 6.88574C76.2554 6.96191 76.1587 7 76.0444 7H75.2183C75.104 7 75.0059 6.96191 74.9238 6.88574C74.8418 6.80664 74.8008 6.70996 74.8008 6.5957V4.75L72.4541 1.11572C72.4043 1.04248 72.3794 0.973633 72.3794 0.90918Z" fill="black"/>
<path d="M82.1514 5.38721C82.1514 5.21436 82.2026 5.09131 82.3052 5.01807C82.4077 4.94189 82.5073 4.90381 82.604 4.90381H83.127C83.3906 4.90381 83.5913 5.04736 83.729 5.33447C83.8667 5.62158 84.1758 5.76514 84.6562 5.76514L86.1943 5.7959C86.71 5.7959 86.9678 5.62744 86.9678 5.29053C86.9678 5.03564 86.6528 4.83496 86.0229 4.68848C85.7417 4.62109 85.4312 4.55518 85.0913 4.49072C84.7515 4.42334 84.4131 4.33984 84.0762 4.24023C83.7422 4.14062 83.4346 4.02344 83.1533 3.88867C82.8721 3.75391 82.6436 3.56934 82.4678 3.33496C82.2949 3.09766 82.2085 2.81934 82.2085 2.5C82.2085 1.91113 82.418 1.4585 82.8369 1.14209C83.2559 0.822754 83.9766 0.663086 84.999 0.663086L86.1152 0.689453C86.7158 0.689453 87.2563 0.844727 87.7368 1.15527C88.2202 1.46289 88.4619 1.84814 88.4619 2.31104C88.4619 2.48389 88.4106 2.6084 88.3081 2.68457C88.2056 2.76074 88.1074 2.79883 88.0137 2.79883H87.4907C87.2271 2.79883 87.0264 2.65527 86.8887 2.36816C86.751 2.07812 86.4419 1.93311 85.9614 1.93311L84.6387 1.90674C84.123 1.90674 83.8652 2.0752 83.8652 2.41211C83.8652 2.59668 84.0278 2.74756 84.353 2.86475C84.6812 2.98193 85.0767 3.08594 85.5396 3.17676C86.0054 3.26465 86.4727 3.37158 86.9414 3.49756C87.4102 3.62354 87.8071 3.83154 88.1323 4.12158C88.4604 4.40869 88.6245 4.76758 88.6245 5.19824C88.6245 5.78711 88.4136 6.24121 87.9917 6.56055C87.5728 6.87695 86.8535 7.03516 85.834 7.03516L84.5024 7.00879C83.9019 7.00879 83.3599 6.85498 82.8765 6.54736C82.3931 6.23682 82.1514 5.8501 82.1514 5.38721Z" fill="black"/>
<path d="M92.5254 6.5957V1.11572C92.5254 1.00146 92.5664 0.90332 92.6484 0.821289C92.7305 0.739258 92.8286 0.698242 92.9429 0.698242H93.7603C93.8804 0.698242 93.98 0.739258 94.0591 0.821289C94.1411 0.90332 94.1821 1.00146 94.1821 1.11572V6.58691C94.1821 6.70117 94.1396 6.79932 94.0547 6.88135C93.9727 6.96045 93.8745 7 93.7603 7H92.9429C92.8286 7 92.7305 6.96191 92.6484 6.88574C92.5664 6.80664 92.5254 6.70996 92.5254 6.5957Z" fill="black"/>
<path d="M98.4434 6.5957V1.12451C98.4434 1.00439 98.4844 0.90332 98.5664 0.821289C98.6484 0.739258 98.7466 0.698242 98.8608 0.698242H101.317C102.589 0.698242 103.513 0.953125 104.09 1.46289C104.67 1.96973 104.96 2.7666 104.96 3.85352C104.96 4.9375 104.67 5.73291 104.09 6.23975C103.513 6.74658 102.589 7 101.317 7H98.8608C98.7466 7 98.6484 6.96191 98.5664 6.88574C98.4844 6.80664 98.4434 6.70996 98.4434 6.5957ZM100.1 5.75635H101.269C102.057 5.75635 102.593 5.61279 102.877 5.32568C103.162 5.03857 103.304 4.54785 103.304 3.85352C103.304 3.15625 103.162 2.66406 102.877 2.37695C102.593 2.08691 102.057 1.94189 101.269 1.94189H100.1V5.75635Z" fill="black"/>
<path d="M108.861 6.57812V1.10693C108.861 0.992676 108.902 0.895996 108.984 0.816895C109.066 0.737793 109.165 0.698242 109.279 0.698242H114.346C114.46 0.698242 114.557 0.739258 114.636 0.821289C114.718 0.90332 114.759 1.00146 114.759 1.11572V1.52881C114.759 1.64307 114.718 1.74121 114.636 1.82324C114.557 1.90234 114.46 1.94189 114.346 1.94189H110.518V3.2207H113.814C113.928 3.2207 114.025 3.26172 114.104 3.34375C114.186 3.42285 114.227 3.51953 114.227 3.63379V4.04688C114.227 4.16113 114.186 4.25928 114.104 4.34131C114.025 4.42041 113.928 4.45996 113.814 4.45996H110.518V5.75635H114.337C114.448 5.75635 114.543 5.7959 114.623 5.875C114.702 5.9541 114.741 6.05078 114.741 6.16504V6.58691C114.741 6.70117 114.7 6.79932 114.618 6.88135C114.536 6.96045 114.438 7 114.324 7H109.279C109.165 7 109.066 6.96045 108.984 6.88135C108.902 6.79932 108.861 6.69824 108.861 6.57812Z" fill="black"/>
<path d="M119.433 5.57617C119.811 5.57617 120 5.71533 120 5.99365C120 6.06982 119.979 6.15918 119.938 6.26172L119.416 7.58447C119.354 7.72803 119.262 7.84814 119.139 7.94482C119.016 8.0415 118.876 8.08984 118.721 8.08984H118.55C118.365 8.08984 118.248 8.05029 118.198 7.97119C118.151 7.89502 118.128 7.81592 118.128 7.73389C118.128 7.65186 118.134 7.57275 118.146 7.49658L118.405 6.08154C118.431 5.94385 118.512 5.8252 118.646 5.72559C118.781 5.62598 118.923 5.57617 119.073 5.57617H119.433Z" fill="black"/>
<path d="M129.788 6.58691V5.94531C129.788 5.57324 129.864 5.25098 130.017 4.97852C130.172 4.70605 130.37 4.49219 130.61 4.33691C130.85 4.18164 131.117 4.04834 131.41 3.93701C131.703 3.82568 131.996 3.73633 132.289 3.66895C132.584 3.59863 132.853 3.52832 133.093 3.45801C133.638 3.29395 133.91 3.06104 133.91 2.75928C133.91 2.43115 133.825 2.20703 133.655 2.08691C133.485 1.9668 133.198 1.90674 132.794 1.90674H132.482C131.917 1.90674 131.544 2.08691 131.366 2.44727C131.234 2.72266 131.036 2.86035 130.772 2.86035H130.25C130.106 2.86035 129.995 2.80908 129.916 2.70654C129.836 2.604 129.797 2.49268 129.797 2.37256C129.797 2.03857 129.924 1.73828 130.179 1.47168C130.437 1.20215 130.756 1 131.137 0.865234C131.518 0.730469 131.915 0.663086 132.328 0.663086H132.921C134.208 0.663086 135.022 1.02051 135.365 1.73535C135.5 2.0166 135.567 2.34326 135.567 2.71533C135.567 3.0874 135.491 3.40381 135.338 3.66455C135.186 3.92529 134.99 4.1333 134.75 4.28857C134.509 4.44092 134.241 4.57275 133.945 4.68408C133.652 4.79541 133.359 4.8877 133.066 4.96094C132.773 5.03125 132.507 5.09863 132.267 5.16309C131.719 5.31543 131.445 5.51318 131.445 5.75635H135.092C135.212 5.75635 135.312 5.79736 135.391 5.87939C135.473 5.96143 135.514 6.05957 135.514 6.17383V6.58691C135.514 6.70117 135.472 6.79932 135.387 6.88135C135.305 6.96045 135.207 7 135.092 7H130.214C130.1 7 130 6.96045 129.916 6.88135C129.831 6.79932 129.788 6.70117 129.788 6.58691Z" fill="black"/>
<path d="M139.107 3.84912C139.107 3.26025 139.188 2.75488 139.349 2.33301C139.513 1.91113 139.745 1.58154 140.043 1.34424C140.612 0.890137 141.353 0.663086 142.267 0.663086H142.575C143.489 0.663086 144.23 0.890137 144.798 1.34424C145.422 1.84229 145.734 2.67725 145.734 3.84912C145.734 5.02686 145.422 5.86328 144.798 6.3584C144.23 6.80957 143.489 7.03516 142.575 7.03516H142.267C141.353 7.03516 140.612 6.80957 140.043 6.3584C139.419 5.86328 139.107 5.02686 139.107 3.84912ZM142.421 1.90674C141.316 1.90674 140.764 2.55566 140.764 3.85352C140.764 5.14844 141.316 5.7959 142.421 5.7959C143.525 5.7959 144.078 5.14844 144.078 3.85352C144.078 2.55566 143.525 1.90674 142.421 1.90674Z" fill="black"/>
<path d="M149.271 6.58691V5.94531C149.271 5.57324 149.347 5.25098 149.499 4.97852C149.654 4.70605 149.852 4.49219 150.092 4.33691C150.333 4.18164 150.599 4.04834 150.892 3.93701C151.185 3.82568 151.478 3.73633 151.771 3.66895C152.067 3.59863 152.335 3.52832 152.575 3.45801C153.12 3.29395 153.393 3.06104 153.393 2.75928C153.393 2.43115 153.308 2.20703 153.138 2.08691C152.968 1.9668 152.681 1.90674 152.276 1.90674H151.964C151.399 1.90674 151.027 2.08691 150.848 2.44727C150.716 2.72266 150.519 2.86035 150.255 2.86035H149.732C149.588 2.86035 149.477 2.80908 149.398 2.70654C149.319 2.604 149.279 2.49268 149.279 2.37256C149.279 2.03857 149.407 1.73828 149.662 1.47168C149.919 1.20215 150.239 1 150.62 0.865234C151 0.730469 151.397 0.663086 151.811 0.663086H152.404C153.69 0.663086 154.504 1.02051 154.847 1.73535C154.982 2.0166 155.049 2.34326 155.049 2.71533C155.049 3.0874 154.973 3.40381 154.821 3.66455C154.668 3.92529 154.472 4.1333 154.232 4.28857C153.992 4.44092 153.724 4.57275 153.428 4.68408C153.135 4.79541 152.842 4.8877 152.549 4.96094C152.256 5.03125 151.989 5.09863 151.749 5.16309C151.201 5.31543 150.927 5.51318 150.927 5.75635H154.575C154.695 5.75635 154.794 5.79736 154.874 5.87939C154.956 5.96143 154.997 6.05957 154.997 6.17383V6.58691C154.997 6.70117 154.954 6.79932 154.869 6.88135C154.787 6.96045 154.689 7 154.575 7H149.697C149.583 7 149.483 6.96045 149.398 6.88135C149.313 6.79932 149.271 6.70117 149.271 6.58691Z" fill="black"/>
<path d="M158.59 6.58691V5.94531C158.59 5.57324 158.666 5.25098 158.818 4.97852C158.974 4.70605 159.171 4.49219 159.412 4.33691C159.652 4.18164 159.918 4.04834 160.211 3.93701C160.504 3.82568 160.797 3.73633 161.09 3.66895C161.386 3.59863 161.654 3.52832 161.895 3.45801C162.439 3.29395 162.712 3.06104 162.712 2.75928C162.712 2.43115 162.627 2.20703 162.457 2.08691C162.287 1.9668 162 1.90674 161.596 1.90674H161.284C160.718 1.90674 160.346 2.08691 160.167 2.44727C160.036 2.72266 159.838 2.86035 159.574 2.86035H159.051C158.908 2.86035 158.796 2.80908 158.717 2.70654C158.638 2.604 158.599 2.49268 158.599 2.37256C158.599 2.03857 158.726 1.73828 158.981 1.47168C159.239 1.20215 159.558 1 159.939 0.865234C160.32 0.730469 160.717 0.663086 161.13 0.663086H161.723C163.009 0.663086 163.824 1.02051 164.167 1.73535C164.301 2.0166 164.369 2.34326 164.369 2.71533C164.369 3.0874 164.292 3.40381 164.14 3.66455C163.988 3.92529 163.792 4.1333 163.551 4.28857C163.311 4.44092 163.043 4.57275 162.747 4.68408C162.454 4.79541 162.161 4.8877 161.868 4.96094C161.575 5.03125 161.309 5.09863 161.068 5.16309C160.521 5.31543 160.247 5.51318 160.247 5.75635H163.894C164.014 5.75635 164.114 5.79736 164.193 5.87939C164.275 5.96143 164.316 6.05957 164.316 6.17383V6.58691C164.316 6.70117 164.273 6.79932 164.188 6.88135C164.106 6.96045 164.008 7 163.894 7H159.016C158.902 7 158.802 6.96045 158.717 6.88135C158.632 6.79932 158.59 6.70117 158.59 6.58691Z" fill="black"/>
<path d="M0.873047 24.5781V19.1245C0.873047 19.0044 0.912598 18.9033 0.991699 18.8213C1.0708 18.7393 1.16748 18.6982 1.28174 18.6982H3.07031C3.18457 18.6982 3.29297 18.7393 3.39551 18.8213C3.49805 18.9033 3.56689 19.0015 3.60205 19.1157L4.89844 22.8687L6.19482 19.1157C6.22998 19.0015 6.29883 18.9033 6.40137 18.8213C6.50391 18.7393 6.6123 18.6982 6.72656 18.6982H8.51514C8.62939 18.6982 8.72461 18.7393 8.80078 18.8213C8.87988 18.9033 8.91943 19.0044 8.91943 19.1245V24.5781C8.91943 24.6982 8.87842 24.7993 8.79639 24.8813C8.71729 24.9604 8.62061 25 8.50635 25H7.71533C7.60107 25 7.50293 24.9604 7.4209 24.8813C7.3418 24.7993 7.30225 24.6982 7.30225 24.5781V20.2847L5.75098 24.6045C5.70996 24.7129 5.63818 24.8066 5.53564 24.8857C5.43311 24.9619 5.32471 25 5.21045 25H4.58203C4.46777 25 4.35938 24.9619 4.25684 24.8857C4.15723 24.8066 4.08545 24.7129 4.0415 24.6045L2.49463 20.2847V24.5781C2.49463 24.6982 2.45361 24.7993 2.37158 24.8813C2.29248 24.9604 2.1958 25 2.08154 25H1.29053C1.17627 25 1.07812 24.9604 0.996094 24.8813C0.914062 24.7993 0.873047 24.6982 0.873047 24.5781Z" fill="black"/>
<path d="M12.6621 24.5957L13.7651 20.4121C14.064 19.2725 15.0366 18.7012 16.6831 18.6982H19.0518C19.1602 18.6982 19.2495 18.7393 19.3198 18.8213C19.3931 18.9033 19.4297 18.9985 19.4297 19.1069V24.5957C19.4297 24.71 19.3887 24.8066 19.3066 24.8857C19.2246 24.9619 19.1265 25 19.0122 25H18.186C18.0659 25 17.9663 24.9619 17.8872 24.8857C17.811 24.8066 17.7729 24.707 17.7729 24.5869V23.4795H14.6484L14.354 24.5869C14.3247 24.707 14.2588 24.8066 14.1562 24.8857C14.0537 24.9619 13.9453 25 13.8311 25H12.9653C12.8511 25 12.769 24.9678 12.7192 24.9033C12.6694 24.8359 12.6445 24.7773 12.6445 24.7275C12.6475 24.6777 12.6533 24.6338 12.6621 24.5957ZM14.9736 22.2358H17.7729V19.9419H16.5205C16.2393 19.9419 15.9932 20.0225 15.7822 20.1836C15.5742 20.3418 15.4336 20.5557 15.3604 20.8252L14.9736 22.2358Z" fill="black"/>
<path d="M23.6865 24.5957V19.1245C23.6865 19.0044 23.7275 18.9033 23.8096 18.8213C23.8916 18.7393 23.9897 18.6982 24.104 18.6982H26.5605C27.832 18.6982 28.7563 18.9531 29.3335 19.4629C29.9136 19.9697 30.2036 20.7666 30.2036 21.8535C30.2036 22.9375 29.9136 23.7329 29.3335 24.2397C28.7563 24.7466 27.832 25 26.5605 25H24.104C23.9897 25 23.8916 24.9619 23.8096 24.8857C23.7275 24.8066 23.6865 24.71 23.6865 24.5957ZM25.3433 23.7563H26.5122C27.3003 23.7563 27.8364 23.6128 28.1206 23.3257C28.4048 23.0386 28.5469 22.5479 28.5469 21.8535C28.5469 21.1562 28.4048 20.6641 28.1206 20.377C27.8364 20.0869 27.3003 19.9419 26.5122 19.9419H25.3433V23.7563Z" fill="black"/>
<path d="M34.1045 24.5781V19.1069C34.1045 18.9927 34.1455 18.896 34.2275 18.8169C34.3096 18.7378 34.4077 18.6982 34.522 18.6982H39.5889C39.7031 18.6982 39.7998 18.7393 39.8789 18.8213C39.9609 18.9033 40.002 19.0015 40.002 19.1157V19.5288C40.002 19.6431 39.9609 19.7412 39.8789 19.8232C39.7998 19.9023 39.7031 19.9419 39.5889 19.9419H35.7612V21.2207H39.0571C39.1714 21.2207 39.2681 21.2617 39.3472 21.3438C39.4292 21.4229 39.4702 21.5195 39.4702 21.6338V22.0469C39.4702 22.1611 39.4292 22.2593 39.3472 22.3413C39.2681 22.4204 39.1714 22.46 39.0571 22.46H35.7612V23.7563H39.5801C39.6914 23.7563 39.7866 23.7959 39.8657 23.875C39.9448 23.9541 39.9844 24.0508 39.9844 24.165V24.5869C39.9844 24.7012 39.9434 24.7993 39.8613 24.8813C39.7793 24.9604 39.6812 25 39.5669 25H34.522C34.4077 25 34.3096 24.9604 34.2275 24.8813C34.1455 24.7993 34.1045 24.6982 34.1045 24.5781Z" fill="black"/>
<path d="M49.9658 24.5957V19.1157C49.9658 19.0015 50.0068 18.9033 50.0889 18.8213C50.1709 18.7393 50.269 18.6982 50.3833 18.6982H51.2007C51.3208 18.6982 51.4204 18.7393 51.4995 18.8213C51.5815 18.9033 51.6226 19.0015 51.6226 19.1157V24.5869C51.6226 24.7012 51.5801 24.7993 51.4951 24.8813C51.4131 24.9604 51.3149 25 51.2007 25H50.3833C50.269 25 50.1709 24.9619 50.0889 24.8857C50.0068 24.8066 49.9658 24.71 49.9658 24.5957Z" fill="black"/>
<path d="M55.8838 24.5869V19.1157C55.8838 19.0015 55.9233 18.9033 56.0024 18.8213C56.0815 18.7393 56.1782 18.6982 56.2925 18.6982H57.5845C57.687 18.6982 57.7954 18.7393 57.9097 18.8213C58.0239 18.9033 58.1177 19.0015 58.1909 19.1157L60.8452 23.1982V19.1069C60.8452 18.9927 60.8848 18.896 60.9639 18.8169C61.0459 18.7378 61.144 18.6982 61.2583 18.6982H62.0142C62.1284 18.6982 62.2251 18.7378 62.3042 18.8169C62.3862 18.896 62.4272 18.9956 62.4272 19.1157V24.5869C62.4272 24.7012 62.3862 24.7993 62.3042 24.8813C62.2251 24.9604 62.1284 25 62.0142 25H60.5552C60.4409 25 60.3237 24.9604 60.2036 24.8813C60.0835 24.7993 59.9883 24.7012 59.918 24.5869L57.4878 20.8164V24.5869C57.4878 24.7012 57.4468 24.7993 57.3647 24.8813C57.2856 24.9604 57.189 25 57.0747 25H56.3013C56.187 25 56.0889 24.9604 56.0068 24.8813C55.9248 24.7993 55.8838 24.7012 55.8838 24.5869Z" fill="black"/>
<path d="M72.3032 19.5288V19.1157C72.3032 18.9956 72.3428 18.896 72.4219 18.8169C72.501 18.7378 72.6006 18.6982 72.7207 18.6982H78.2974C78.4175 18.6982 78.5171 18.7378 78.5962 18.8169C78.6753 18.896 78.7148 18.9956 78.7148 19.1157V19.5288C78.7148 19.6489 78.6753 19.7485 78.5962 19.8276C78.5171 19.9038 78.4175 19.9419 78.2974 19.9419H76.3374V24.5957C76.3374 24.71 76.2964 24.8066 76.2144 24.8857C76.1353 24.9619 76.0386 25 75.9243 25H75.0938C74.9795 25 74.8813 24.9619 74.7993 24.8857C74.7202 24.8066 74.6807 24.71 74.6807 24.5957V19.9419H72.7207C72.6006 19.9419 72.501 19.9038 72.4219 19.8276C72.3428 19.7485 72.3032 19.6489 72.3032 19.5288Z" fill="black"/>
<path d="M88.1177 24.3496C87.52 24.874 86.6411 25.1362 85.481 25.1362C84.3237 25.1362 83.4448 24.874 82.8442 24.3496C82.2437 23.8223 81.9434 22.9888 81.9434 21.8491C81.9434 20.7095 82.2437 19.8774 82.8442 19.353C83.4448 18.8286 84.3237 18.5664 85.481 18.5664C86.6411 18.5664 87.52 18.8286 88.1177 19.353C88.7183 19.8774 89.0186 20.7095 89.0186 21.8491C89.0186 22.9888 88.7183 23.8223 88.1177 24.3496ZM86.918 20.2803C86.6221 19.9287 86.1431 19.7529 85.481 19.7529C84.8218 19.7529 84.3428 19.9287 84.0439 20.2803C83.748 20.6318 83.6001 21.1562 83.6001 21.8535C83.6001 22.5479 83.748 23.0708 84.0439 23.4224C84.3428 23.771 84.8218 23.9453 85.481 23.9453C86.1431 23.9453 86.6221 23.771 86.918 23.4224C87.2139 23.0708 87.3618 22.5479 87.3618 21.8535C87.3618 21.1562 87.2139 20.6318 86.918 20.2803Z" fill="black"/>
<path d="M99.4673 24.811C99.4673 24.937 99.3926 25 99.2432 25H98.1885C98.0771 25 97.9541 24.9604 97.8193 24.8813C97.6875 24.7993 97.5864 24.7012 97.5161 24.5869L96.769 23.418C96.4614 22.9375 96.0894 22.6973 95.6528 22.6973H94.5806V24.5869C94.5806 24.7012 94.5396 24.7993 94.4575 24.8813C94.3784 24.9604 94.2817 25 94.1675 25H93.3413C93.2271 25 93.1289 24.9604 93.0469 24.8813C92.9648 24.7993 92.9238 24.7012 92.9238 24.5869V19.1157C92.9238 19.0015 92.9634 18.9033 93.0425 18.8213C93.1216 18.7393 93.2183 18.6982 93.3325 18.6982H96.958C97.6289 18.6982 98.1782 18.8784 98.606 19.2388C99.0366 19.5991 99.252 20.0854 99.252 20.6978C99.252 21.5503 98.6997 22.085 97.5952 22.3018C97.771 22.3662 97.9336 22.4775 98.083 22.6357C98.2324 22.791 98.4038 23.0181 98.5972 23.3169L99.397 24.5869C99.4438 24.6689 99.4673 24.7437 99.4673 24.811ZM94.5806 21.4536H96.4526C96.7544 21.4536 97.0195 21.3936 97.248 21.2734C97.4795 21.1533 97.5952 20.9614 97.5952 20.6978C97.5952 20.4341 97.4795 20.2422 97.248 20.1221C97.0195 20.002 96.7544 19.9419 96.4526 19.9419H94.5806V21.4536Z" fill="black"/>
<path d="M109.015 24.3496C108.417 24.874 107.539 25.1362 106.378 25.1362C105.221 25.1362 104.342 24.874 103.742 24.3496C103.141 23.8223 102.841 22.9888 102.841 21.8491C102.841 20.7095 103.141 19.8774 103.742 19.353C104.342 18.8286 105.221 18.5664 106.378 18.5664C107.539 18.5664 108.417 18.8286 109.015 19.353C109.616 19.8774 109.916 20.7095 109.916 21.8491C109.916 22.9888 109.616 23.8223 109.015 24.3496ZM107.815 20.2803C107.52 19.9287 107.041 19.7529 106.378 19.7529C105.719 19.7529 105.24 19.9287 104.941 20.2803C104.646 20.6318 104.498 21.1562 104.498 21.8535C104.498 22.5479 104.646 23.0708 104.941 23.4224C105.24 23.771 105.719 23.9453 106.378 23.9453C107.041 23.9453 107.52 23.771 107.815 23.4224C108.111 23.0708 108.259 22.5479 108.259 21.8535C108.259 21.1562 108.111 20.6318 107.815 20.2803Z" fill="black"/>
<path d="M113.821 24.5869V19.1157C113.821 19.0015 113.861 18.9033 113.94 18.8213C114.019 18.7393 114.116 18.6982 114.23 18.6982H115.522C115.625 18.6982 115.733 18.7393 115.847 18.8213C115.961 18.9033 116.055 19.0015 116.128 19.1157L118.783 23.1982V19.1069C118.783 18.9927 118.822 18.896 118.901 18.8169C118.983 18.7378 119.082 18.6982 119.196 18.6982H119.952C120.066 18.6982 120.163 18.7378 120.242 18.8169C120.324 18.896 120.365 18.9956 120.365 19.1157V24.5869C120.365 24.7012 120.324 24.7993 120.242 24.8813C120.163 24.9604 120.066 25 119.952 25H118.493C118.378 25 118.261 24.9604 118.141 24.8813C118.021 24.7993 117.926 24.7012 117.855 24.5869L115.425 20.8164V24.5869C115.425 24.7012 115.384 24.7993 115.302 24.8813C115.223 24.9604 115.126 25 115.012 25H114.239C114.125 25 114.026 24.9604 113.944 24.8813C113.862 24.7993 113.821 24.7012 113.821 24.5869Z" fill="black"/>
<path d="M124.085 19.5288V19.1157C124.085 18.9956 124.125 18.896 124.204 18.8169C124.283 18.7378 124.383 18.6982 124.503 18.6982H130.08C130.2 18.6982 130.299 18.7378 130.378 18.8169C130.458 18.896 130.497 18.9956 130.497 19.1157V19.5288C130.497 19.6489 130.458 19.7485 130.378 19.8276C130.299 19.9038 130.2 19.9419 130.08 19.9419H128.12V24.5957C128.12 24.71 128.079 24.8066 127.997 24.8857C127.917 24.9619 127.821 25 127.707 25H126.876C126.762 25 126.664 24.9619 126.582 24.8857C126.502 24.8066 126.463 24.71 126.463 24.5957V19.9419H124.503C124.383 19.9419 124.283 19.9038 124.204 19.8276C124.125 19.7485 124.085 19.6489 124.085 19.5288Z" fill="black"/>
<path d="M139.9 24.3496C139.302 24.874 138.423 25.1362 137.263 25.1362C136.106 25.1362 135.227 24.874 134.626 24.3496C134.026 23.8223 133.726 22.9888 133.726 21.8491C133.726 20.7095 134.026 19.8774 134.626 19.353C135.227 18.8286 136.106 18.5664 137.263 18.5664C138.423 18.5664 139.302 18.8286 139.9 19.353C140.5 19.8774 140.801 20.7095 140.801 21.8491C140.801 22.9888 140.5 23.8223 139.9 24.3496ZM138.7 20.2803C138.404 19.9287 137.925 19.7529 137.263 19.7529C136.604 19.7529 136.125 19.9287 135.826 20.2803C135.53 20.6318 135.382 21.1562 135.382 21.8535C135.382 22.5479 135.53 23.0708 135.826 23.4224C136.125 23.771 136.604 23.9453 137.263 23.9453C137.925 23.9453 138.404 23.771 138.7 23.4224C138.996 23.0708 139.144 22.5479 139.144 21.8535C139.144 21.1562 138.996 20.6318 138.7 20.2803Z" fill="black"/>
<path d="M145.572 23.5762C145.95 23.5762 146.139 23.7153 146.139 23.9937C146.139 24.0698 146.118 24.1592 146.077 24.2617L145.554 25.5845C145.493 25.728 145.4 25.8481 145.277 25.9448C145.154 26.0415 145.015 26.0898 144.86 26.0898H144.688C144.504 26.0898 144.387 26.0503 144.337 25.9712C144.29 25.895 144.267 25.8159 144.267 25.7339C144.267 25.6519 144.272 25.5728 144.284 25.4966L144.543 24.0815C144.57 23.9438 144.65 23.8252 144.785 23.7256C144.92 23.626 145.062 23.5762 145.211 23.5762H145.572Z" fill="black"/>
<path d="M156.74 24.2573C156.198 23.7388 155.927 22.9375 155.927 21.8535C155.927 20.7666 156.198 19.9639 156.74 19.4453C157.285 18.9238 158.101 18.6631 159.188 18.6631H160.167C160.833 18.6631 161.42 18.8359 161.93 19.1816C162.442 19.5273 162.699 20.0005 162.699 20.6011C162.699 20.7739 162.647 20.8984 162.545 20.9746C162.442 21.0479 162.343 21.0845 162.246 21.0845H161.723C161.454 21.0845 161.244 20.9233 161.095 20.6011C160.878 20.1382 160.518 19.9067 160.014 19.9067H159.231C158.59 19.9067 158.155 20.0444 157.926 20.3198C157.698 20.5952 157.583 21.105 157.583 21.8491C157.583 22.5933 157.698 23.1045 157.926 23.3828C158.155 23.6582 158.59 23.7959 159.231 23.7959H160.106C160.61 23.7959 160.969 23.5645 161.183 23.1016C161.332 22.7764 161.543 22.6138 161.815 22.6138H162.338C162.476 22.6138 162.584 22.665 162.664 22.7676C162.746 22.8701 162.787 22.9814 162.787 23.1016C162.787 23.7021 162.532 24.1753 162.022 24.521C161.512 24.8638 160.925 25.0352 160.26 25.0352H159.188C158.101 25.0352 157.285 24.7759 156.74 24.2573Z" fill="black"/>
<path d="M166.125 24.5957L167.228 20.4121C167.527 19.2725 168.5 18.7012 170.146 18.6982H172.515C172.623 18.6982 172.712 18.7393 172.783 18.8213C172.856 18.9033 172.893 18.9985 172.893 19.1069V24.5957C172.893 24.71 172.852 24.8066 172.77 24.8857C172.688 24.9619 172.589 25 172.475 25H171.649C171.529 25 171.429 24.9619 171.35 24.8857C171.274 24.8066 171.236 24.707 171.236 24.5869V23.4795H168.111L167.817 24.5869C167.788 24.707 167.722 24.8066 167.619 24.8857C167.517 24.9619 167.408 25 167.294 25H166.428C166.314 25 166.232 24.9678 166.182 24.9033C166.132 24.8359 166.107 24.7773 166.107 24.7275C166.11 24.6777 166.116 24.6338 166.125 24.5957ZM168.437 22.2358H171.236V19.9419H169.983C169.702 19.9419 169.456 20.0225 169.245 20.1836C169.037 20.3418 168.896 20.5557 168.823 20.8252L168.437 22.2358Z" fill="black"/>
<path d="M177.149 24.5869V19.1157C177.149 19.0015 177.189 18.9033 177.268 18.8213C177.347 18.7393 177.444 18.6982 177.558 18.6982H178.85C178.953 18.6982 179.061 18.7393 179.175 18.8213C179.29 18.9033 179.383 19.0015 179.457 19.1157L182.111 23.1982V19.1069C182.111 18.9927 182.15 18.896 182.229 18.8169C182.312 18.7378 182.41 18.6982 182.524 18.6982H183.28C183.394 18.6982 183.491 18.7378 183.57 18.8169C183.652 18.896 183.693 18.9956 183.693 19.1157V24.5869C183.693 24.7012 183.652 24.7993 183.57 24.8813C183.491 24.9604 183.394 25 183.28 25H181.821C181.707 25 181.589 24.9604 181.469 24.8813C181.349 24.7993 181.254 24.7012 181.184 24.5869L178.753 20.8164V24.5869C178.753 24.7012 178.712 24.7993 178.63 24.8813C178.551 24.9604 178.455 25 178.34 25H177.567C177.453 25 177.354 24.9604 177.272 24.8813C177.19 24.7993 177.149 24.7012 177.149 24.5869Z" fill="black"/>
<path d="M187.436 24.5957L188.539 20.4121C188.837 19.2725 189.81 18.7012 191.457 18.6982H193.825C193.934 18.6982 194.023 18.7393 194.093 18.8213C194.167 18.9033 194.203 18.9985 194.203 19.1069V24.5957C194.203 24.71 194.162 24.8066 194.08 24.8857C193.998 24.9619 193.9 25 193.786 25H192.959C192.839 25 192.74 24.9619 192.661 24.8857C192.584 24.8066 192.546 24.707 192.546 24.5869V23.4795H189.422L189.127 24.5869C189.098 24.707 189.032 24.8066 188.93 24.8857C188.827 24.9619 188.719 25 188.604 25H187.739C187.625 25 187.542 24.9678 187.493 24.9033C187.443 24.8359 187.418 24.7773 187.418 24.7275C187.421 24.6777 187.427 24.6338 187.436 24.5957ZM189.747 22.2358H192.546V19.9419H191.294C191.013 19.9419 190.767 20.0225 190.556 20.1836C190.348 20.3418 190.207 20.5557 190.134 20.8252L189.747 22.2358Z" fill="black"/>
<path d="M198.46 24.5957V19.1245C198.46 19.0044 198.501 18.9033 198.583 18.8213C198.665 18.7393 198.763 18.6982 198.877 18.6982H201.334C202.605 18.6982 203.53 18.9531 204.107 19.4629C204.687 19.9697 204.977 20.7666 204.977 21.8535C204.977 22.9375 204.687 23.7329 204.107 24.2397C203.53 24.7466 202.605 25 201.334 25H198.877C198.763 25 198.665 24.9619 198.583 24.8857C198.501 24.8066 198.46 24.71 198.46 24.5957ZM200.117 23.7563H201.286C202.074 23.7563 202.61 23.6128 202.894 23.3257C203.178 23.0386 203.32 22.5479 203.32 21.8535C203.32 21.1562 203.178 20.6641 202.894 20.377C202.61 20.0869 202.074 19.9419 201.286 19.9419H200.117V23.7563Z" fill="black"/>
<path d="M208.359 24.5957L209.462 20.4121C209.761 19.2725 210.734 18.7012 212.38 18.6982H214.749C214.857 18.6982 214.947 18.7393 215.017 18.8213C215.09 18.9033 215.127 18.9985 215.127 19.1069V24.5957C215.127 24.71 215.086 24.8066 215.004 24.8857C214.922 24.9619 214.824 25 214.709 25H213.883C213.763 25 213.664 24.9619 213.584 24.8857C213.508 24.8066 213.47 24.707 213.47 24.5869V23.4795H210.346L210.051 24.5869C210.022 24.707 209.956 24.8066 209.854 24.8857C209.751 24.9619 209.643 25 209.528 25H208.663C208.548 25 208.466 24.9678 208.417 24.9033C208.367 24.8359 208.342 24.7773 208.342 24.7275C208.345 24.6777 208.351 24.6338 208.359 24.5957ZM210.671 22.2358H213.47V19.9419H212.218C211.937 19.9419 211.69 20.0225 211.479 20.1836C211.271 20.3418 211.131 20.5557 211.058 20.8252L210.671 22.2358Z" fill="black"/>
</svg>
