<svg width="26" height="25" viewBox="0 0 26 25" fill="none" xmlns="http://www.w3.org/2000/svg">
<path d="M23.75 10.602H14.25V1.51457C14.25 1.11288 14.0832 0.727647 13.7863 0.443609C13.4893 0.159571 13.0866 0 12.6667 0C12.2467 0 11.844 0.159571 11.5471 0.443609C11.2501 0.727647 11.0833 1.11288 11.0833 1.51457V10.602H1.58333C1.16341 10.602 0.76068 10.7616 0.463748 11.0456C0.166815 11.3297 0 11.7149 0 12.1166C0 12.5183 0.166815 12.9035 0.463748 13.1876C0.76068 13.4716 1.16341 13.6312 1.58333 13.6312H11.0833V22.7186C11.0833 23.1203 11.2501 23.5055 11.5471 23.7896C11.844 24.0736 12.2467 24.2332 12.6667 24.2332C13.0866 24.2332 13.4893 24.0736 13.7863 23.7896C14.0832 23.5055 14.25 23.1203 14.25 22.7186V13.6312H23.75C24.1699 13.6312 24.5727 13.4716 24.8696 13.1876C25.1665 12.9035 25.3333 12.5183 25.3333 12.1166C25.3333 11.7149 25.1665 11.3297 24.8696 11.0456C24.5727 10.7616 24.1699 10.602 23.75 10.602Z" fill="white"/>
</svg>
