<svg width="56" height="44" viewBox="0 0 56 44" fill="none" xmlns="http://www.w3.org/2000/svg">
<path d="M17.617 44C38.7439 44 50.3027 27.0701 50.3027 12.3931C50.3027 11.9171 50.2917 11.4306 50.2698 10.9547C52.5184 9.38225 54.4588 7.43457 56 5.20316C53.9059 6.10412 51.6825 6.69252 49.4058 6.94829C51.803 5.55878 53.5979 3.37593 54.4578 0.804379C52.2026 2.09678 49.7363 3.00846 47.1647 3.50034C45.432 1.71998 43.141 0.541177 40.6459 0.146173C38.1509 -0.248832 35.5908 0.161966 33.3614 1.31505C31.132 2.46814 29.3575 4.29929 28.3123 6.5254C27.2671 8.7515 27.0093 11.2486 27.5789 13.6305C23.0125 13.409 18.5452 12.2619 14.4666 10.2637C10.3881 8.26543 6.78928 5.46069 3.90359 2.03126C2.43693 4.4765 1.98813 7.37002 2.64841 10.1237C3.30868 12.8775 5.02848 15.2848 7.45828 16.8564C5.63413 16.8004 3.84994 16.3255 2.25312 15.4709V15.6084C2.25149 18.1744 3.16889 20.6619 4.84939 22.6479C6.52988 24.6339 8.86975 25.9958 11.4712 26.5022C9.78146 26.9493 8.00796 27.0144 6.28797 26.6926C7.02206 28.8994 8.45034 30.8296 10.3735 32.2137C12.2966 33.5979 14.6186 34.3669 17.0155 34.4134C12.9463 37.5043 7.91974 39.1808 2.74531 39.1729C1.82767 39.1715 0.910931 39.1171 0 39.01C5.25666 42.2711 11.3716 44.0032 17.617 44Z" fill="white"/>
</svg>
