<?xml version="1.0" encoding="utf-8"?>
<!-- Generator: Adobe Illustrator 25.4.1, SVG Export Plug-In . SVG Version: 6.00 Build 0)  -->
<svg version="1.1" id="Layer_1" xmlns="http://www.w3.org/2000/svg" xmlns:xlink="http://www.w3.org/1999/xlink" x="0px" y="0px"
	 viewBox="0 0 500 500" style="enable-background:new 0 0 500 500;" xml:space="preserve">
<style type="text/css">
	.st0{fill:#FFF;}
</style>
<path class="st0" d="M492.5,456.6c4.8,4.8,7.5,11.3,7.5,18c0,6.8-2.7,13.3-7.5,18c-4.8,4.8-11.3,7.4-18,7.4c-6.8,0-13.2-2.6-18-7.4
	L250,285.9L43.6,492.6c-4.8,4.8-11.3,7.4-18,7.4c-6.8,0-13.2-2.6-18-7.4s-7.5-11.3-7.5-18c0-6.8,2.7-13.3,7.5-18l206.7-206.5
	L7.5,43.5c-6.4-6.4-9-15.8-6.6-24.6s9.2-15.7,18-18C27.7-1.5,37.1,1,43.6,7.5L250,214.2L456.4,7.5c6.4-6.4,15.8-9,24.6-6.6
	c8.8,2.4,15.7,9.2,18,18c2.4,8.8-0.2,18.2-6.6,24.6L285.8,250.1L492.5,456.6z"/>
</svg>
